HIERARCHY
ROOT Hips
{
  OFFSET -372.129 92.0889 553.253
  CHANNELS 6 Xposition Yposition Zposition Zrotation Xrotation Yrotation
  JOINT Spine
  {
    OFFSET 0 8 0
    CHANNELS 6 Xposition Yposition Zposition Zrotation Xrotation Yrotation
    JOINT Spine1
    {
      OFFSET 1.9107e-05 8 3.28402e-05
      CHANNELS 6 Xposition Yposition Zposition Zrotation Xrotation Yrotation
      JOINT Spine2
      {
        OFFSET 6.86101e-05 8 -4.97326e-05
        CHANNELS 6 Xposition Yposition Zposition Zrotation Xrotation Yrotation
        JOINT Spine3
        {
          OFFSET 0 8 0
          CHANNELS 6 Xposition Yposition Zposition Zrotation Xrotation Yrotation
          JOINT Neck
          {
            OFFSET 0 17 0
            CHANNELS 6 Xposition Yposition Zposition Zrotation Xrotation Yrotation
            JOINT Head
            {
              OFFSET 6.06577e-05 10.8 -3.02882e-05
              CHANNELS 6 Xposition Yposition Zposition Zrotation Xrotation Yrotation
              End Site
              {
                OFFSET 0 20.25 0
              }
            }
          }
          JOINT LeftShoulder
          {
            OFFSET 5.00002 17 0
            CHANNELS 6 Xposition Yposition Zposition Zrotation Xrotation Yrotation
            JOINT LeftShoulder2
            {
              OFFSET 6.45 0 0
              CHANNELS 6 Xposition Yposition Zposition Zrotation Xrotation Yrotation
              JOINT LeftArm
              {
                OFFSET 6.44998 0 2.22172e-05
                CHANNELS 6 Xposition Yposition Zposition Zrotation Xrotation Yrotation
                JOINT LeftForeArm
                {
                  OFFSET -5.32725e-05 -32.4 -2.00001
                  CHANNELS 6 Xposition Yposition Zposition Zrotation Xrotation Yrotation
                  JOINT LeftHand
                  {
                    OFFSET -3.4324e-05 -25.65 1.99997
                    CHANNELS 6 Xposition Yposition Zposition Zrotation Xrotation Yrotation
                    JOINT LeftHandThumb1
                    {
                      OFFSET -0.500061 -1.50008 2.65012
                      CHANNELS 6 Xposition Yposition Zposition Zrotation Xrotation Yrotation
                      JOINT LeftHandThumb2
                      {
                        OFFSET 4.30502e-05 -3.80009 3.69994
                        CHANNELS 6 Xposition Yposition Zposition Zrotation Xrotation Yrotation
                        JOINT LeftHandThumb3
                        {
                          OFFSET 5.03533e-05 -3.00006 2.69996
                          CHANNELS 6 Xposition Yposition Zposition Zrotation Xrotation Yrotation
                          End Site
                          {
                            OFFSET -7.29085e-05 -2.30007 1.79995
                          }
                        }
                      }
                    }
                    JOINT LeftHandIndex
                    {
                      OFFSET -3.46367e-05 -1.9001 1.60003
                      CHANNELS 6 Xposition Yposition Zposition Zrotation Xrotation Yrotation
                      JOINT LeftHandIndex1
                      {
                        OFFSET -7.45486e-05 -8.29991 1.90006
                        CHANNELS 6 Xposition Yposition Zposition Zrotation Xrotation Yrotation
                        JOINT LeftHandIndex2
                        {
                          OFFSET -1.87554e-05 -4.5 -8.37688e-05
                          CHANNELS 6 Xposition Yposition Zposition Zrotation Xrotation Yrotation
                          JOINT LeftHandIndex3
                          {
                            OFFSET -6.65875e-05 -3.40009 -9.64176e-05
                            CHANNELS 6 Xposition Yposition Zposition Zrotation Xrotation Yrotation
                            End Site
                            {
                              OFFSET 4.30491e-05 -2.5999 -1.05789e-05
                            }
                          }
                        }
                      }
                    }
                    JOINT LeftHandMiddle
                    {
                      OFFSET -0.249931 -2.19999 0.399941
                      CHANNELS 6 Xposition Yposition Zposition Zrotation Xrotation Yrotation
                      JOINT LeftHandMiddle1
                      {
                        OFFSET -4.68393e-05 -8.30004 1.00001
                        CHANNELS 6 Xposition Yposition Zposition Zrotation Xrotation Yrotation
                        JOINT LeftHandMiddle2
                        {
                          OFFSET -1.74782e-05 -4.65001 3.4167e-05
                          CHANNELS 6 Xposition Yposition Zposition Zrotation Xrotation Yrotation
                          JOINT LeftHandMiddle3
                          {
                            OFFSET 3.44619e-05 -3.30007 -3.72701e-05
                            CHANNELS 6 Xposition Yposition Zposition Zrotation Xrotation Yrotation
                            End Site
                            {
                              OFFSET 6.80554e-05 -2.69993 3.21191e-05
                            }
                          }
                        }
                      }
                    }
                    JOINT LeftHandRing
                    {
                      OFFSET -0.500079 -2.15009 -0.800006
                      CHANNELS 6 Xposition Yposition Zposition Zrotation Xrotation Yrotation
                      JOINT LeftHandRing1
                      {
                        OFFSET 3.19492e-05 -7.75001 -0.199944
                        CHANNELS 6 Xposition Yposition Zposition Zrotation Xrotation Yrotation
                        JOINT LeftHandRing2
                        {
                          OFFSET -1.31217e-05 -3.80001 -9.35854e-05
                          CHANNELS 6 Xposition Yposition Zposition Zrotation Xrotation Yrotation
                          JOINT LeftHandRing3
                          {
                            OFFSET 0 -3.40006 -8.69522e-05
                            CHANNELS 6 Xposition Yposition Zposition Zrotation Xrotation Yrotation
                            End Site
                            {
                              OFFSET 3.99282e-05 -2.59994 1.05535e-05
                            }
                          }
                        }
                      }
                    }
                    JOINT LeftHandPinky
                    {
                      OFFSET -0.750066 -1.75 -1.85007
                      CHANNELS 6 Xposition Yposition Zposition Zrotation Xrotation Yrotation
                      JOINT LeftHandPinky1
                      {
                        OFFSET -9.99717e-05 -7.14994 -0.999952
                        CHANNELS 6 Xposition Yposition Zposition Zrotation Xrotation Yrotation
                        JOINT LeftHandPinky2
                        {
                          OFFSET 3.76283e-05 -2.99991 3.63486e-05
                          CHANNELS 6 Xposition Yposition Zposition Zrotation Xrotation Yrotation
                          JOINT LeftHandPinky3
                          {
                            OFFSET -6.49521e-05 -2.35004 -2.97199e-05
                            CHANNELS 6 Xposition Yposition Zposition Zrotation Xrotation Yrotation
                            End Site
                            {
                              OFFSET 1.77521e-05 -2.10009 -3.54408e-05
                            }
                          }
                        }
                      }
                    }
                  }
                }
              }
            }
          }
          JOINT RightShoulder
          {
            OFFSET -5 17 0
            CHANNELS 6 Xposition Yposition Zposition Zrotation Xrotation Yrotation
            JOINT RightShoulder2
            {
              OFFSET -6.45 0 0
              CHANNELS 6 Xposition Yposition Zposition Zrotation Xrotation Yrotation
              JOINT RightArm
              {
                OFFSET -6.45003 -1.04088e-05 1.11418e-05
                CHANNELS 6 Xposition Yposition Zposition Zrotation Xrotation Yrotation
                JOINT RightForeArm
                {
                  OFFSET 5.815e-05 -32.4 -2.00007
                  CHANNELS 6 Xposition Yposition Zposition Zrotation Xrotation Yrotation
                  JOINT RightHand
                  {
                    OFFSET 8.64258e-05 -25.65 2.00005
                    CHANNELS 6 Xposition Yposition Zposition Zrotation Xrotation Yrotation
                    JOINT RightHandThumb1
                    {
                      OFFSET 0.500077 -1.50001 2.65001
                      CHANNELS 6 Xposition Yposition Zposition Zrotation Xrotation Yrotation
                      JOINT RightHandThumb2
                      {
                        OFFSET -3.74787e-05 -3.79999 3.70004
                        CHANNELS 6 Xposition Yposition Zposition Zrotation Xrotation Yrotation
                        JOINT RightHandThumb3
                        {
                          OFFSET -4.42143e-05 -3 2.69999
                          CHANNELS 6 Xposition Yposition Zposition Zrotation Xrotation Yrotation
                          End Site
                          {
                            OFFSET 9.96574e-05 -2.29999 1.80002
                          }
                        }
                      }
                    }
                    JOINT RightHandIndex
                    {
                      OFFSET 3.08783e-05 -1.90001 1.60002
                      CHANNELS 6 Xposition Yposition Zposition Zrotation Xrotation Yrotation
                      JOINT RightHandIndex1
                      {
                        OFFSET -4.8601e-05 -8.30001 1.90007
                        CHANNELS 6 Xposition Yposition Zposition Zrotation Xrotation Yrotation
                        JOINT RightHandIndex2
                        {
                          OFFSET 9.37871e-05 -4.50005 1.29614e-05
                          CHANNELS 6 Xposition Yposition Zposition Zrotation Xrotation Yrotation
                          JOINT RightHandIndex3
                          {
                            OFFSET -6.07323e-05 -3.39998 -3.49585e-05
                            CHANNELS 6 Xposition Yposition Zposition Zrotation Xrotation Yrotation
                            End Site
                            {
                              OFFSET 5.27092e-05 -2.59998 0
                            }
                          }
                        }
                      }
                    }
                    JOINT RightHandMiddle
                    {
                      OFFSET 0.249939 -2.19997 0.400062
                      CHANNELS 6 Xposition Yposition Zposition Zrotation Xrotation Yrotation
                      JOINT RightHandMiddle1
                      {
                        OFFSET -6.77391e-05 -8.30007 1
                        CHANNELS 6 Xposition Yposition Zposition Zrotation Xrotation Yrotation
                        JOINT RightHandMiddle2
                        {
                          OFFSET -1.63947e-05 -4.65 4.86948e-05
                          CHANNELS 6 Xposition Yposition Zposition Zrotation Xrotation Yrotation
                          JOINT RightHandMiddle3
                          {
                            OFFSET -3.64596e-05 -3.29995 -5.96098e-05
                            CHANNELS 6 Xposition Yposition Zposition Zrotation Xrotation Yrotation
                            End Site
                            {
                              OFFSET 5.21249e-05 -2.70005 -4.24123e-05
                            }
                          }
                        }
                      }
                    }
                    JOINT RightHandRing
                    {
                      OFFSET 0.500039 -2.14994 -0.800038
                      CHANNELS 6 Xposition Yposition Zposition Zrotation Xrotation Yrotation
                      JOINT RightHandRing1
                      {
                        OFFSET -3.2452e-05 -7.74996 -0.200085
                        CHANNELS 6 Xposition Yposition Zposition Zrotation Xrotation Yrotation
                        JOINT RightHandRing2
                        {
                          OFFSET -3.31685e-05 -3.79877 6.86956e-05
                          CHANNELS 6 Xposition Yposition Zposition Zrotation Xrotation Yrotation
                          JOINT RightHandRing3
                          {
                            OFFSET -9.32121e-05 -3.39993 1.32395e-05
                            CHANNELS 6 Xposition Yposition Zposition Zrotation Xrotation Yrotation
                            End Site
                            {
                              OFFSET 0 -2.59994 0
                            }
                          }
                        }
                      }
                    }
                    JOINT RightHandPinky
                    {
                      OFFSET 0.750007 -1.74997 -1.85005
                      CHANNELS 6 Xposition Yposition Zposition Zrotation Xrotation Yrotation
                      JOINT RightHandPinky1
                      {
                        OFFSET 5.87473e-05 -7.14992 -0.999946
                        CHANNELS 6 Xposition Yposition Zposition Zrotation Xrotation Yrotation
                        JOINT RightHandPinky2
                        {
                          OFFSET -1.03518e-05 -2.99998 -9.53452e-05
                          CHANNELS 6 Xposition Yposition Zposition Zrotation Xrotation Yrotation
                          JOINT RightHandPinky3
                          {
                            OFFSET -1.27929e-05 -2.35003 -4.70047e-05
                            CHANNELS 6 Xposition Yposition Zposition Zrotation Xrotation Yrotation
                            End Site
                            {
                              OFFSET 2.24485e-05 -2.09995 6.39565e-05
                            }
                          }
                        }
                      }
                    }
                  }
                }
              }
            }
          }
        }
      }
    }
  }
  JOINT LeftUpLeg
  {
    OFFSET 8.00003 0 -1.17671e-05
    CHANNELS 6 Xposition Yposition Zposition Zrotation Xrotation Yrotation
    JOINT LeftLeg
    {
      OFFSET -7.84718e-05 -45 -0.99996
      CHANNELS 6 Xposition Yposition Zposition Zrotation Xrotation Yrotation
      JOINT LeftFoot
      {
        OFFSET 0.000103581 -41 -2
        CHANNELS 6 Xposition Yposition Zposition Zrotation Xrotation Yrotation
        JOINT LeftToeBase
        {
          OFFSET 4.33786e-05 -7.50001 12.5
          CHANNELS 6 Xposition Yposition Zposition Zrotation Xrotation Yrotation
          JOINT LeftFootToe
          {
            OFFSET 0 0 4
            CHANNELS 6 Xposition Yposition Zposition Zrotation Xrotation Yrotation
            End Site
            {
              OFFSET 0 0 0
            }
          }
        }
      }
    }
  }
  JOINT RightUpLeg
  {
    OFFSET -8.00003 0 1.17671e-05
    CHANNELS 6 Xposition Yposition Zposition Zrotation Xrotation Yrotation
    JOINT RightLeg
    {
      OFFSET 0.000108952 -45 -0.99998
      CHANNELS 6 Xposition Yposition Zposition Zrotation Xrotation Yrotation
      JOINT RightFoot
      {
        OFFSET -5.82964e-05 -41 -2.00003
        CHANNELS 6 Xposition Yposition Zposition Zrotation Xrotation Yrotation
        JOINT RightToeBase
        {
          OFFSET 0 -7.5 12.5
          CHANNELS 6 Xposition Yposition Zposition Zrotation Xrotation Yrotation
          JOINT RightFootToe
          {
            OFFSET 0 0 4
            CHANNELS 6 Xposition Yposition Zposition Zrotation Xrotation Yrotation
            End Site
            {
              OFFSET 0 0 0
            }
          }
        }
      }
    }
  }
}
MOTION
Frames:	3
Frame Time:	0.0111111
-379.443 91.5122 555.286 -0.277733 -3.54789 38.153 0 8 -5.68434e-14 17.9809 -5.16286 1.15268 0 8 -5.68434e-14 3.81433 1.70916 1.81303 0 8 0 1.91448 0.839913 0.922141 0 8 0 1.91258 0.839402 0.921532 0 17 8.52651e-14 -3.67044 0.949771 10.1656 0 10.8 0 -8.7796 1.16039 23.9373 5 17 2.84217e-14 5.18668 -8.52657 3.82428 6.45 5.68434e-14 0 -0.130666 -0.0279609 -1.92543 6.45 0 0 22.1479 -7.81277 35.0643 5.68434e-14 -32.4 -2 -14.7333 -59.9735 51.1088 0 -25.65 2 1.68272 21.9918 23.4256 -0.5 -1.5 2.65 4.54019 -31.3563 6.62501 0 -3.8 3.7 0.294903 21.0002 -0.211685 0 -3 2.7 0.054342 11.9483 -0.0873389 0 -1.9 1.6 2.42029e-06 1.34636e-05 1.61894e-05 0 -8.3 1.9 -22.1592 31.2404 7.03331 0 -4.5 0 0.00520704 -0.00754577 0.00196549 -5.68434e-14 -3.4 -5.68434e-14 0.0061119 0.00180657 0.00191195 -0.25 -2.2 0.4 2.42029e-06 1.34636e-05 1.61894e-05 5.68434e-14 -8.3 1 -53.8362 29.3459 19.3082 -5.68434e-14 -4.65 0 -0.000653818 -0.060943 -0.0499441 -2.84217e-14 -3.3 0 -4.21066e-05 -0.0571328 -0.0483022 -0.5 -2.15 -0.8 2.42029e-06 1.34636e-05 1.61894e-05 0 -7.75 -0.2 -73.6251 18.946 21.8642 5.68434e-14 -3.8 0 -0.00127593 -0.0292284 -0.0213685 -5.68434e-14 -3.4 0 -4.05703e-05 -0.0233669 -0.0208577 -0.75 -1.75 -1.85 2.42029e-06 1.34636e-05 1.61894e-05 -5.68434e-14 -7.15 -1 -59.8763 23.7339 19.3905 -2.84217e-14 -3 0 -54.0004 0.0126602 0.0429595 -5.68434e-14 -2.35 5.68434e-14 -37.3481 -0.0130926 -0.00336222 -5 17 2.84217e-14 -0.391259 -8.28423 1.08094 -6.45 0 -2.84217e-14 -2.61365 1.62688 -0.805143 -6.45 0 2.84217e-14 28.0519 -37.3989 37.8099 1.13687e-13 -32.4 -2 132.058 -55.0328 100.323 -5.68434e-14 -25.65 2 -15.281 23.7782 32.5195 0.5 -1.5 2.65 147.904 25.6893 -175.749 -1.13687e-13 -3.8 3.7 0.255599 17.434 0.0285528 1.13687e-13 -3 2.7 0.0209279 39.2409 -0.0684295 1.13687e-13 -1.9 1.6 -5.37397e-05 2.24249e-05 -2.61456e-05 0 -8.3 1.9 2.19528 12.2358 -0.31804 0 -4.5 2.84217e-14 53.011 -0.0333122 -0.0157231 0 -3.4 0 36.665 -0.0260695 -0.00278738 0.25 -2.2 0.4 -5.37397e-05 2.24249e-05 -2.61456e-05 0 -8.3 1 2.49692 13.0402 -0.474953 0 -4.65 2.84217e-14 17.5298 -0.0296807 -0.0523284 -1.13687e-13 -3.3 0 14.147 -0.0285095 -0.0299237 0.5 -2.15 -0.8 -5.37397e-05 2.24249e-05 -2.61456e-05 0 -7.75 -0.2 3.15163 14.7396 -0.804628 -1.13687e-13 -3.8 0 0.445952 -0.045504 -0.00358268 1.13687e-13 -3.4 2.84217e-14 0.41559 -0.0580669 0.000471785 0.75 -1.75 -1.85 -5.37397e-05 2.24249e-05 -2.61456e-05 0 -7.15 -1 3.52611 15.6977 -0.999322 -1.13687e-13 -3 -2.84217e-14 -1.07955e-05 0.0185935 0.0641237 -1.13687e-13 -2.35 0 1.69808e-05 0.00675115 0.0167277 8 7.10543e-15 -5.68434e-14 4.52335 -12.0256 17.1253 0 -45 -1 -0.233766 25.5896 -8.13382 1.13687e-13 -41 -2 4.03561 -10.5593 -28.2786 0 -7.5 12.5 4.22527e-06 -5.54829e-08 -9.11539e-06 0 0 4 14.0121 -5.51898 47.0481 -8 0 -5.68434e-14 -3.72293 3.81752 -21.9654 -1.13687e-13 -45 -1 0.275247 16.0807 2.74242 0 -41 -2 5.32692 -15.0716 -22.5491 -5.68434e-14 -7.5 12.5 -7.14103e-07 0.0407228 -4.12632e-05 5.68434e-14 -2.22045e-16 4 -2.78775 4.53508 35.8756 
-379.395 91.5122 555.272 -0.28042 -3.54367 38.1521 0 8 -2.84217e-14 18.0188 -5.16181 1.18526 0 8 -5.68434e-14 3.83315 1.69974 1.81125 0 8 -5.68434e-14 1.92386 0.83513 0.920726 -1.13687e-13 8 -2.84217e-14 1.92179 0.834943 0.920052 0 17 -8.52651e-14 -3.70037 0.998054 10.1 1.13687e-13 10.8 0 -8.86226 1.27093 23.7875 5 17 0 5.21719 -8.49604 3.96274 6.45 -5.68434e-14 -2.84217e-14 -0.130822 -0.0383529 -1.92548 6.45 5.68434e-14 -2.84217e-14 22.0613 -7.86931 34.8919 0 -32.4 -2 -14.8843 -60.0643 51.0021 0 -25.65 2 2.3774 21.8877 23.1425 -0.5 -1.5 2.65 5.10386 -30.9949 6.60173 0 -3.8 3.7 0.297287 21.4173 -0.214068 0 -3 2.7 0.0545551 11.9763 -0.088164 -5.68434e-14 -1.9 1.6 2.42029e-06 1.34636e-05 1.61894e-05 5.68434e-14 -8.3 1.9 -22.2082 31.2569 7.05253 0 -4.5 0 0.00570224 -0.00769148 0.00189947 -5.68434e-14 -3.4 0 0.00660126 0.00173738 0.00184908 -0.25 -2.2 0.4 2.42029e-06 1.34636e-05 1.61894e-05 0 -8.3 1 -54.2207 29.1757 19.3758 0 -4.65 5.68434e-14 -0.000657836 -0.0630417 -0.051934 -2.84217e-14 -3.3 0 -4.55926e-05 -0.0591467 -0.0500345 -0.5 -2.15 -0.8 2.42029e-06 1.34636e-05 1.61894e-05 -1.13687e-13 -7.75 -0.2 -73.5708 18.9687 21.8527 -2.84217e-14 -3.8 0 -0.00128117 -0.0300031 -0.0219166 0 -3.4 0 -4.09396e-05 -0.0239733 -0.0214103 -0.75 -1.75 -1.85 2.42029e-06 1.34636e-05 1.61894e-05 -5.68434e-14 -7.15 -1 -59.6884 23.7028 19.2768 2.84217e-14 -3 0 -54.3521 0.0121588 0.0429325 0 -2.35 0 -37.6046 -0.0128628 -0.00355513 -5 17 -2.84217e-14 -0.421994 -8.30191 1.10498 -6.45 5.68434e-14 2.84217e-14 -2.6119 1.63242 -0.819726 -6.45 0 2.84217e-14 28.0133 -37.3947 37.6848 1.13687e-13 -32.4 -2 131.999 -55.2378 100.617 0 -25.65 2 -14.788 23.8362 32.265 0.5 -1.5 2.65 147.61 25.5344 -175.682 1.13687e-13 -3.8 3.7 0.255082 17.4905 0.028478 0 -3 2.7 0.0209731 39.2396 -0.0681602 -1.13687e-13 -1.9 1.6 -5.37397e-05 2.24249e-05 -2.61456e-05 0 -8.3 1.9 1.95154 11.5695 -0.271013 0 -4.5 2.84217e-14 51.9801 -0.03455 -0.0148396 2.84217e-14 -3.4 8.52651e-14 35.9326 -0.0262273 -0.00246564 0.25 -2.2 0.4 -5.37397e-05 2.24249e-05 -2.61456e-05 1.13687e-13 -8.3 1 2.24409 12.3857 -0.415588 0 -4.65 2.84217e-14 15.818 -0.031115 -0.0510629 0 -3.3 2.84217e-14 12.9428 -0.0294184 -0.0297816 0.5 -2.15 -0.8 -5.37397e-05 2.24249e-05 -2.61456e-05 0 -7.75 -0.2 2.87388 14.1042 -0.720169 0 -3.8 2.84217e-14 0.726919 -0.045365 -0.00358268 0 -3.4 0 0.68968 -0.05745 0.000471785 0.75 -1.75 -1.85 -5.37397e-05 2.24249e-05 -2.61456e-05 0 -7.15 -1 3.24756 15.1056 -0.90394 0 -3 8.52651e-14 -9.19907e-06 0.017329 0.0635247 1.13687e-13 -2.35 5.68434e-14 1.71026e-05 0.00647376 0.0163665 8 7.10543e-15 -2.84217e-14 4.49194 -12.0341 17.0947 0 -45 -1 -0.235813 25.6171 -8.10899 1.13687e-13 -41 -2 4.07103 -10.5588 -28.3749 0 -7.5 12.5 4.22527e-06 -5.54829e-08 -9.11539e-06 -1.13687e-13 5.55112e-17 4 13.9706 -5.51882 47.0433 -8 7.10543e-15 -5.68434e-14 -3.75427 3.83493 -21.9901 0 -45 -1 0.275872 16.0595 2.74144 0 -41 -2 5.36581 -15.0576 -22.5282 0 -7.5 12.5 -7.14768e-07 0.0397993 -4.12632e-05 0 0 4 -2.81155 4.52823 35.7853 
-379.348 91.5124 555.254 -0.282359 -3.5396 38.1444 0 8 -2.84217e-14 18.0563 -5.15889 1.22107 -1.13687e-13 8 -2.84217e-14 3.8521 1.69058 1.81097 -1.13687e-13 8 -5.68434e-14 1.93331 0.830442 0.91995 0 8 -5.68434e-14 1.93156 0.830028 0.919225 1.13687e-13 17 -5.68434e-14 -3.72829 1.04697 10.0305 0 10.8 0 -8.94026 1.38406 23.6285 5 17 2.84217e-14 5.2458 -8.4607 4.09524 6.45 0 0 -0.130961 -0.0483713 -1.92535 6.45 0 0 21.955 -7.94073 34.724 -5.68434e-14 -32.4 -2 -15.0733 -60.1454 50.8447 0 -25.65 2 3.03678 21.7529 22.888 -0.5 -1.5 2.65 5.6434 -30.6383 6.55337 0 -3.8 3.7 0.299732 21.8163 -0.216736 0 -3 2.7 0.0547904 12.0154 -0.0890125 -5.68434e-14 -1.9 1.6 2.42029e-06 1.34636e-05 1.61894e-05 0 -8.3 1.9 -22.2326 31.2653 7.06217 0 -4.5 0 0.000311271 -0.00779009 0.00183414 -5.68434e-14 -3.4 0 0.00123109 0.00166995 0.00178672 -0.25 -2.2 0.4 2.42029e-06 1.34636e-05 1.61894e-05 0 -8.3 1 -54.6263 28.9908 19.444 2.84217e-14 -4.65 -5.68434e-14 -0.000661833 -0.0650716 -0.0538334 0 -3.3 0 -4.91244e-05 -0.0611259 -0.051725 -0.5 -2.15 -0.8 2.42029e-06 1.34636e-05 1.61894e-05 0 -7.75 -0.2 -73.5168 18.9931 21.8436 5.68434e-14 -3.8 0 -0.00128656 -0.0307078 -0.0224114 -5.68434e-14 -3.4 0 -4.12474e-05 -0.024527 -0.0219083 -0.75 -1.75 -1.85 2.42029e-06 1.34636e-05 1.61894e-05 -5.68434e-14 -7.15 -1 -59.5146 23.6817 19.1778 2.84217e-14 -3 5.68434e-14 -54.719 0.0116557 0.0428163 0 -2.35 0 -37.8759 -0.012633 -0.0037109 -5 17 5.68434e-14 -0.452152 -8.31806 1.1317 -6.45 0 -5.68434e-14 -2.61073 1.6386 -0.837025 -6.45 0 -2.84217e-14 27.9711 -37.3986 37.5449 0 -32.4 -2 131.941 -55.4416 100.914 0 -25.65 2 -14.3049 23.8865 32.0198 0.5 -1.5 2.65 147.333 25.3739 -175.62 0 -3.8 3.7 0.254547 17.547 0.028381 1.13687e-13 -3 2.7 0.0210182 39.2383 -0.0678909 0 -1.9 1.6 -5.37397e-05 2.24249e-05 -2.61456e-05 0 -8.3 1.9 1.73939 10.9618 -0.231747 0 -4.5 -5.68434e-14 50.9617 -0.031619 -0.0122201 -5.68434e-14 -3.4 0 35.2084 -0.0232548 -0.00215427 0.25 -2.2 0.4 -5.37397e-05 2.24249e-05 -2.61456e-05 0 -8.3 1 2.02436 11.7908 -0.365648 1.13687e-13 -4.65 0 14.148 -0.0294667 -0.0447651 -1.13687e-13 -3.3 -5.68434e-14 11.767 -0.0274015 -0.0267052 0.5 -2.15 -0.8 -5.37397e-05 2.24249e-05 -2.61456e-05 0 -7.75 -0.2 2.63201 13.528 -0.648209 -1.13687e-13 -3.8 0 1.10955 -0.0451579 -0.00358268 0 -3.4 2.84217e-14 1.0567 -0.0567549 0.000471785 0.75 -1.75 -1.85 -5.37397e-05 2.24249e-05 -2.61456e-05 0 -7.15 -1 3.00228 14.5669 -0.821525 1.13687e-13 -3 2.84217e-14 -7.62548e-06 0.0160708 0.062888 1.13687e-13 -2.35 2.84217e-14 1.72223e-05 0.00619484 0.0159956 8 0 -5.68434e-14 4.4526 -12.0432 17.0453 0 -45 -1 -0.238055 25.6391 -8.08461 -1.13687e-13 -41 -2 4.10477 -10.5623 -28.4656 0 -7.5 12.5 4.22527e-06 -5.54829e-08 -9.11539e-06 -1.13687e-13 -2.77556e-17 4 13.9223 -5.49546 47.0601 -8 0 2.84217e-14 -3.78959 3.84653 -22.0093 0 -45 -1 0.276543 16.0419 2.74111 0 -41 -2 5.40441 -15.0401 -22.5094 0 -7.5 12.5 -7.15482e-07 0.0388084 -4.12632e-05 5.68434e-14 0 4 -2.83809 4.52052 35.7143 
